<?xml version="1.0" encoding="iso-8859-1"?>
<!-- Generator: Adobe Illustrator 19.1.0, SVG Export Plug-In . SVG Version: 6.00 Build 0)  -->
<svg version="1.1" id="Capa_1" xmlns="http://www.w3.org/2000/svg" xmlns:xlink="http://www.w3.org/1999/xlink" x="0px" y="0px"
	 viewBox="0 0 420.097 420.097" style="enable-background:new 0 0 420.097 420.097;" xml:space="preserve">
<g>
	<g>
		<path style="fill:#231F20;" d="M121.86,396.58c-32.068,0-63.068-12.827-86.585-35.275c-47.034-47.034-47.034-125.067,0-172.101
			L168.894,55.585c6.414-6.414,16.034-6.414,22.448,0s6.414,16.034,0,22.448L57.723,210.583c-35.275,35.275-35.275,91.93,0,127.205
			s91.93,35.275,127.205,0l185.997-185.997c21.379-21.379,21.379-56.654,0-78.033c-10.689-10.689-24.586-16.034-38.482-16.034
			c-14.965,0-28.862,5.345-38.482,16.034L158.205,208.445c-4.276,4.276-6.414,8.552-6.414,13.896c0,5.345,2.138,10.689,6.414,13.896
			c7.483,7.483,20.31,7.483,28.862,0l82.309-82.309c6.414-6.414,16.034-6.414,22.448,0c6.414,6.414,6.414,16.034,0,22.448
			l-82.309,82.309c-20.31,20.31-53.447,20.31-73.758,0c-9.621-9.621-14.965-23.517-14.965-37.413s5.345-26.724,14.965-37.413
			L270.444,49.172c16.034-16.034,38.482-25.655,61.999-25.655c23.517,0,44.896,8.552,61.999,25.655
			c16.034,16.034,25.655,38.482,25.655,61.999s-8.552,44.896-25.655,61.999L208.445,360.236
			C184.928,383.753,153.929,396.58,121.86,396.58z"/>
	</g>
</g>
<g>
</g>
<g>
</g>
<g>
</g>
<g>
</g>
<g>
</g>
<g>
</g>
<g>
</g>
<g>
</g>
<g>
</g>
<g>
</g>
<g>
</g>
<g>
</g>
<g>
</g>
<g>
</g>
<g>
</g>
</svg>
