<svg xmlns="http://www.w3.org/2000/svg" viewBox="0 0 420.097 420.097"><path d="M121.86 396.58c-32.068 0-63.068-12.827-86.585-35.275-47.034-47.034-47.034-125.067 0-172.1l133.62-133.62c6.413-6.414 16.033-6.414 22.447 0s6.414 16.034 0 22.448l-133.62 132.55c-35.274 35.275-35.274 91.93 0 127.205s91.93 35.275 127.206 0L370.925 151.79c21.38-21.378 21.38-56.653 0-78.032-10.69-10.69-24.586-16.034-38.482-16.034-14.965 0-28.862 5.345-38.482 16.034L158.206 208.445c-4.276 4.276-6.414 8.552-6.414 13.896 0 5.346 2.14 10.69 6.415 13.897 7.483 7.483 20.31 7.483 28.862 0l82.31-82.31c6.413-6.413 16.033-6.413 22.447 0 6.414 6.415 6.414 16.035 0 22.45l-82.31 82.308c-20.31 20.31-53.446 20.31-73.757 0-9.62-9.62-14.965-23.517-14.965-37.413s5.345-26.724 14.965-37.413L270.444 49.17c16.034-16.034 38.482-25.655 62-25.655 23.516 0 44.895 8.552 61.998 25.655 16.034 16.034 25.655 38.482 25.655 62s-8.552 44.895-25.655 61.998L208.445 360.236c-23.517 23.517-54.516 36.344-86.585 36.344z" fill="#231f20"/></svg>