<svg xmlns="http://www.w3.org/2000/svg" width="45.779" height="45.779" viewBox="0 0 45.779 45.779"><path d="M37.426 2.633H8.362C3.746 2.633 0 6.37 0 10.985v17.003c0 4.615 3.747 8.344 8.362 8.344h18.48l3.902 5.604a2.827 2.827 0 0 0 2.31 1.21 2.818 2.818 0 0 0 2.315-1.196l4.128-5.865a8.36 8.36 0 0 0 6.28-8.098V10.985a8.35 8.35 0 0 0-8.352-8.352zM15.43 22.203a2.72 2.72 0 0 1-2.725-2.717c0-1.5 1.22-2.716 2.726-2.716a2.72 2.72 0 0 1 2.727 2.716 2.72 2.72 0 0 1-2.726 2.717zm7.464 0a2.72 2.72 0 0 1-2.726-2.717c0-1.5 1.22-2.716 2.726-2.716a2.72 2.72 0 0 1 2.725 2.716 2.72 2.72 0 0 1-2.726 2.717zm7.463 0a2.72 2.72 0 0 1-2.727-2.717c0-1.5 1.22-2.716 2.727-2.716s2.726 1.217 2.726 2.716a2.72 2.72 0 0 1-2.726 2.717z"/></svg>