<svg xmlns="http://www.w3.org/2000/svg" viewBox="0 0 234 234"><g fill="#000002"><path d="M7.5 42.57h39.235c3.327 12.647 14.856 22 28.53 22s25.205-9.353 28.532-22H226.5a7.5 7.5 0 0 0 0-15H103.796c-3.327-12.645-14.856-22-28.53-22s-25.205 9.355-28.532 22H7.5a7.5 7.5 0 0 0 0 15zm67.766-22c7.995 0 14.5 6.506 14.5 14.5s-6.505 14.5-14.5 14.5-14.5-6.504-14.5-14.5 6.505-14.5 14.5-14.5zM226.5 109.5h-49.99c-3.327-12.646-14.856-22-28.53-22-13.676 0-25.205 9.354-28.532 22H7.5a7.5 7.5 0 0 0 0 15h111.95c3.326 12.645 14.855 22 28.53 22s25.204-9.355 28.53-22h49.99a7.5 7.5 0 1 0 0-15zm-78.52 22c-7.995 0-14.5-6.505-14.5-14.5s6.505-14.5 14.5-14.5 14.5 6.505 14.5 14.5-6.505 14.5-14.5 14.5zM226.5 191.43H103.796c-3.327-12.646-14.856-22-28.53-22s-25.205 9.354-28.532 22H7.5a7.5 7.5 0 0 0 0 15h39.235c3.327 12.645 14.856 22 28.53 22s25.205-9.355 28.532-22H226.5a7.5 7.5 0 0 0 0-15zm-151.234 22c-7.995 0-14.5-6.506-14.5-14.5s6.505-14.5 14.5-14.5 14.5 6.504 14.5 14.5-6.505 14.5-14.5 14.5z"/></g></svg>