<svg xmlns="http://www.w3.org/2000/svg" width="45.913" height="45.912" viewBox="0 0 45.913 45.912"><path d="M33.862 37.352c5.63-3.6 9.36-9.906 9.36-17.084C43.222 9.075 34.15 0 22.956 0S2.69 9.074 2.69 20.267c0 7.18 3.732 13.484 9.36 17.084l-3.536 4.233c-1.437 1.725-.21 4.328 2.033 4.328h24.816c2.244 0 3.47-2.603 2.033-4.327l-3.534-4.23zM22.956 31.6c-6.26 0-11.333-5.074-11.333-11.333 0-6.26 5.074-11.332 11.333-11.332 6.26 0 11.333 5.073 11.333 11.332 0 6.258-5.075 11.333-11.334 11.333z"/><path d="M22.956 13.38c-.914 0-1.784.184-2.583.507 1.197 1.963.3 5.22-2.71 5.22a3.37 3.37 0 0 1-1.434-.3 6.886 6.886 0 1 0 6.727-5.425z"/></svg>